<svg xmlns="http://www.w3.org/2000/svg" version="1.1" xmlns:xlink="http://www.w3.org/1999/xlink" xmlns:svgjs="http://svgjs.com/svgjs" width="1440" height="250" preserveAspectRatio="none" viewBox="0 0 1440 250"><g mask="url(&quot;#SvgjsMask3305&quot;)" fill="none"><rect width="1440" height="250" x="0" y="0" fill="url(#SvgjsLinearGradient3306)"></rect><path d="M23 250L273 0L462 0L212 250z" fill="url(#SvgjsLinearGradient3307)"></path><path d="M262.6 250L512.6 0L644.6 0L394.6 250z" fill="url(#SvgjsLinearGradient3307)"></path><path d="M516.2 250L766.2 0L1036.2 0L786.2 250z" fill="url(#SvgjsLinearGradient3307)"></path><path d="M731.8000000000001 250L981.8000000000001 0L1154.3000000000002 0L904.3000000000001 250z" fill="url(#SvgjsLinearGradient3307)"></path><path d="M1399 250L1149 0L972 0L1222 250z" fill="url(#SvgjsLinearGradient3308)"></path><path d="M1165.4 250L915.4000000000001 0L693.4000000000001 0L943.4000000000001 250z" fill="url(#SvgjsLinearGradient3308)"></path><path d="M932.8 250L682.8 0L508.79999999999995 0L758.8 250z" fill="url(#SvgjsLinearGradient3308)"></path><path d="M723.1999999999999 250L473.19999999999993 0L132.69999999999993 0L382.69999999999993 250z" fill="url(#SvgjsLinearGradient3308)"></path><path d="M1225.6745819416205 250L1440 35.67458194162066L1440 250z" fill="url(#SvgjsLinearGradient3307)"></path><path d="M0 250L214.32541805837934 250L 0 35.67458194162066z" fill="url(#SvgjsLinearGradient3308)"></path></g><defs><mask id="SvgjsMask3305"><rect width="1440" height="250" fill="#ffffff"></rect></mask><linearGradient x1="50%" y1="0%" x2="50%" y2="100%" gradientUnits="userSpaceOnUse" id="SvgjsLinearGradient3306"><stop stop-color="#0e2a47" offset="0"></stop><stop stop-color="rgba(60, 143, 255, 1)" offset="1"></stop></linearGradient><linearGradient x1="0%" y1="100%" x2="100%" y2="0%" id="SvgjsLinearGradient3307"><stop stop-color="rgba(30, 58, 138, 1)" offset="0"></stop><stop stop-opacity="0" stop-color="rgba(30, 58, 138, 1)" offset="0.66"></stop></linearGradient><linearGradient x1="100%" y1="100%" x2="0%" y2="0%" id="SvgjsLinearGradient3308"><stop stop-color="rgba(30, 58, 138, 1)" offset="0"></stop><stop stop-opacity="0" stop-color="rgba(30, 58, 138, 1)" offset="0.66"></stop></linearGradient></defs></svg>